<mxfile host="Electron" modified="2023-08-20T05:42:06.248Z" agent="Mozilla/5.0 (X11; Linux x86_64) AppleWebKit/537.36 (KHTML, like Gecko) draw.io/21.2.8 Chrome/112.0.5615.165 Electron/24.2.0 Safari/537.36" etag="T9oPPjNkkEx24aO97KJ5" version="21.2.8" type="device">
  <diagram name="Page-1" id="riEK-7ilfjC0lSIERnCU">
    <mxGraphModel dx="1434" dy="870" grid="1" gridSize="10" guides="1" tooltips="1" connect="1" arrows="1" fold="1" page="1" pageScale="1" pageWidth="1200" pageHeight="800" math="0" shadow="0">
      <root>
        <mxCell id="0" />
        <mxCell id="1" parent="0" />
        <mxCell id="y5o55rPguEJIMGyrt83E-1" value="Contacts" style="swimlane;fontStyle=0;childLayout=stackLayout;horizontal=1;startSize=30;horizontalStack=0;resizeParent=1;resizeParentMax=0;resizeLast=0;collapsible=1;marginBottom=0;whiteSpace=wrap;html=1;" vertex="1" parent="1">
          <mxGeometry x="680" y="240" width="200" height="120" as="geometry" />
        </mxCell>
        <mxCell id="y5o55rPguEJIMGyrt83E-2" value="Peer 1&lt;br&gt;PubKey Type I, PubKey Type II" style="text;strokeColor=none;fillColor=none;align=left;verticalAlign=middle;spacingLeft=4;spacingRight=4;overflow=hidden;points=[[0,0.5],[1,0.5]];portConstraint=eastwest;rotatable=0;whiteSpace=wrap;html=1;" vertex="1" parent="y5o55rPguEJIMGyrt83E-1">
          <mxGeometry y="30" width="200" height="30" as="geometry" />
        </mxCell>
        <mxCell id="y5o55rPguEJIMGyrt83E-3" value="Peer 2&lt;br&gt;PubKey Type II, PubKey Type III" style="text;strokeColor=none;fillColor=none;align=left;verticalAlign=middle;spacingLeft=4;spacingRight=4;overflow=hidden;points=[[0,0.5],[1,0.5]];portConstraint=eastwest;rotatable=0;whiteSpace=wrap;html=1;" vertex="1" parent="y5o55rPguEJIMGyrt83E-1">
          <mxGeometry y="60" width="200" height="30" as="geometry" />
        </mxCell>
        <mxCell id="y5o55rPguEJIMGyrt83E-4" value="ID&lt;br&gt;PubKey Type I, PubKey Type III" style="text;strokeColor=none;fillColor=none;align=left;verticalAlign=middle;spacingLeft=4;spacingRight=4;overflow=hidden;points=[[0,0.5],[1,0.5]];portConstraint=eastwest;rotatable=0;whiteSpace=wrap;html=1;" vertex="1" parent="y5o55rPguEJIMGyrt83E-1">
          <mxGeometry y="90" width="200" height="30" as="geometry" />
        </mxCell>
        <mxCell id="y5o55rPguEJIMGyrt83E-15" style="edgeStyle=orthogonalEdgeStyle;rounded=0;orthogonalLoop=1;jettySize=auto;html=1;exitX=1;exitY=0.5;exitDx=0;exitDy=0;entryX=0;entryY=0.5;entryDx=0;entryDy=0;endArrow=none;endFill=0;" edge="1" parent="1" source="y5o55rPguEJIMGyrt83E-5" target="y5o55rPguEJIMGyrt83E-10">
          <mxGeometry relative="1" as="geometry" />
        </mxCell>
        <mxCell id="y5o55rPguEJIMGyrt83E-5" value="Block 10" style="rounded=0;whiteSpace=wrap;html=1;" vertex="1" parent="1">
          <mxGeometry x="80" y="160" width="80" height="40" as="geometry" />
        </mxCell>
        <mxCell id="y5o55rPguEJIMGyrt83E-16" style="edgeStyle=orthogonalEdgeStyle;rounded=0;orthogonalLoop=1;jettySize=auto;html=1;exitX=1;exitY=0.5;exitDx=0;exitDy=0;entryX=0;entryY=0.5;entryDx=0;entryDy=0;endArrow=none;endFill=0;" edge="1" parent="1" source="y5o55rPguEJIMGyrt83E-6" target="y5o55rPguEJIMGyrt83E-11">
          <mxGeometry relative="1" as="geometry" />
        </mxCell>
        <mxCell id="y5o55rPguEJIMGyrt83E-6" value="Block 11" style="rounded=0;whiteSpace=wrap;html=1;" vertex="1" parent="1">
          <mxGeometry x="80" y="220" width="80" height="40" as="geometry" />
        </mxCell>
        <mxCell id="y5o55rPguEJIMGyrt83E-17" style="edgeStyle=orthogonalEdgeStyle;rounded=0;orthogonalLoop=1;jettySize=auto;html=1;exitX=1;exitY=0.5;exitDx=0;exitDy=0;entryX=0;entryY=0.5;entryDx=0;entryDy=0;endArrow=none;endFill=0;" edge="1" parent="1" source="y5o55rPguEJIMGyrt83E-7" target="y5o55rPguEJIMGyrt83E-12">
          <mxGeometry relative="1" as="geometry" />
        </mxCell>
        <mxCell id="y5o55rPguEJIMGyrt83E-7" value="Block 12" style="rounded=0;whiteSpace=wrap;html=1;" vertex="1" parent="1">
          <mxGeometry x="80" y="280" width="80" height="40" as="geometry" />
        </mxCell>
        <mxCell id="y5o55rPguEJIMGyrt83E-18" style="edgeStyle=orthogonalEdgeStyle;rounded=0;orthogonalLoop=1;jettySize=auto;html=1;exitX=1;exitY=0.5;exitDx=0;exitDy=0;entryX=0;entryY=0.5;entryDx=0;entryDy=0;endArrow=none;endFill=0;" edge="1" parent="1" source="y5o55rPguEJIMGyrt83E-8" target="y5o55rPguEJIMGyrt83E-13">
          <mxGeometry relative="1" as="geometry" />
        </mxCell>
        <mxCell id="y5o55rPguEJIMGyrt83E-8" value="Block 13" style="rounded=0;whiteSpace=wrap;html=1;" vertex="1" parent="1">
          <mxGeometry x="80" y="340" width="80" height="40" as="geometry" />
        </mxCell>
        <mxCell id="y5o55rPguEJIMGyrt83E-9" value="Blockchain" style="text;html=1;strokeColor=none;fillColor=none;align=center;verticalAlign=middle;whiteSpace=wrap;rounded=0;fontSize=15;" vertex="1" parent="1">
          <mxGeometry x="80" y="100" width="80" height="40" as="geometry" />
        </mxCell>
        <mxCell id="y5o55rPguEJIMGyrt83E-10" value="file 10" style="rounded=0;whiteSpace=wrap;html=1;" vertex="1" parent="1">
          <mxGeometry x="240" y="160" width="80" height="40" as="geometry" />
        </mxCell>
        <mxCell id="y5o55rPguEJIMGyrt83E-11" value="file 11" style="rounded=0;whiteSpace=wrap;html=1;" vertex="1" parent="1">
          <mxGeometry x="240" y="220" width="80" height="40" as="geometry" />
        </mxCell>
        <mxCell id="y5o55rPguEJIMGyrt83E-12" value="file 12" style="rounded=0;whiteSpace=wrap;html=1;" vertex="1" parent="1">
          <mxGeometry x="240" y="280" width="80" height="40" as="geometry" />
        </mxCell>
        <mxCell id="y5o55rPguEJIMGyrt83E-13" value="file 13" style="rounded=0;whiteSpace=wrap;html=1;" vertex="1" parent="1">
          <mxGeometry x="240" y="340" width="80" height="40" as="geometry" />
        </mxCell>
        <mxCell id="y5o55rPguEJIMGyrt83E-14" value="Off-Chain&lt;br&gt;Data" style="text;html=1;strokeColor=none;fillColor=none;align=center;verticalAlign=middle;whiteSpace=wrap;rounded=0;fontSize=15;" vertex="1" parent="1">
          <mxGeometry x="240" y="100" width="80" height="40" as="geometry" />
        </mxCell>
      </root>
    </mxGraphModel>
  </diagram>
</mxfile>
